G75*
G70*
%OFA0B0*%
%FSLAX24Y24*%
%IPPOS*%
%LPD*%
%AMOC8*
5,1,8,0,0,1.08239X$1,22.5*
%
%ADD10C,0.0000*%
%ADD11C,0.1260*%
%ADD12C,0.0160*%
%ADD13C,0.1040*%
%ADD14C,0.1640*%
%ADD15C,0.0555*%
D10*
X002118Y001728D02*
X002120Y001777D01*
X002126Y001826D01*
X002136Y001874D01*
X002149Y001921D01*
X002167Y001967D01*
X002188Y002011D01*
X002212Y002054D01*
X002240Y002094D01*
X002271Y002133D01*
X002305Y002168D01*
X002342Y002201D01*
X002381Y002230D01*
X002423Y002256D01*
X002466Y002279D01*
X002512Y002298D01*
X002558Y002314D01*
X002606Y002326D01*
X002654Y002334D01*
X002703Y002338D01*
X002753Y002338D01*
X002802Y002334D01*
X002850Y002326D01*
X002898Y002314D01*
X002944Y002298D01*
X002990Y002279D01*
X003033Y002256D01*
X003075Y002230D01*
X003114Y002201D01*
X003151Y002168D01*
X003185Y002133D01*
X003216Y002094D01*
X003244Y002054D01*
X003268Y002011D01*
X003289Y001967D01*
X003307Y001921D01*
X003320Y001874D01*
X003330Y001826D01*
X003336Y001777D01*
X003338Y001728D01*
X003336Y001679D01*
X003330Y001630D01*
X003320Y001582D01*
X003307Y001535D01*
X003289Y001489D01*
X003268Y001445D01*
X003244Y001402D01*
X003216Y001362D01*
X003185Y001323D01*
X003151Y001288D01*
X003114Y001255D01*
X003075Y001226D01*
X003033Y001200D01*
X002990Y001177D01*
X002944Y001158D01*
X002898Y001142D01*
X002850Y001130D01*
X002802Y001122D01*
X002753Y001118D01*
X002703Y001118D01*
X002654Y001122D01*
X002606Y001130D01*
X002558Y001142D01*
X002512Y001158D01*
X002466Y001177D01*
X002423Y001200D01*
X002381Y001226D01*
X002342Y001255D01*
X002305Y001288D01*
X002271Y001323D01*
X002240Y001362D01*
X002212Y001402D01*
X002188Y001445D01*
X002167Y001489D01*
X002149Y001535D01*
X002136Y001582D01*
X002126Y001630D01*
X002120Y001679D01*
X002118Y001728D01*
X015118Y001728D02*
X015120Y001777D01*
X015126Y001826D01*
X015136Y001874D01*
X015149Y001921D01*
X015167Y001967D01*
X015188Y002011D01*
X015212Y002054D01*
X015240Y002094D01*
X015271Y002133D01*
X015305Y002168D01*
X015342Y002201D01*
X015381Y002230D01*
X015423Y002256D01*
X015466Y002279D01*
X015512Y002298D01*
X015558Y002314D01*
X015606Y002326D01*
X015654Y002334D01*
X015703Y002338D01*
X015753Y002338D01*
X015802Y002334D01*
X015850Y002326D01*
X015898Y002314D01*
X015944Y002298D01*
X015990Y002279D01*
X016033Y002256D01*
X016075Y002230D01*
X016114Y002201D01*
X016151Y002168D01*
X016185Y002133D01*
X016216Y002094D01*
X016244Y002054D01*
X016268Y002011D01*
X016289Y001967D01*
X016307Y001921D01*
X016320Y001874D01*
X016330Y001826D01*
X016336Y001777D01*
X016338Y001728D01*
X016336Y001679D01*
X016330Y001630D01*
X016320Y001582D01*
X016307Y001535D01*
X016289Y001489D01*
X016268Y001445D01*
X016244Y001402D01*
X016216Y001362D01*
X016185Y001323D01*
X016151Y001288D01*
X016114Y001255D01*
X016075Y001226D01*
X016033Y001200D01*
X015990Y001177D01*
X015944Y001158D01*
X015898Y001142D01*
X015850Y001130D01*
X015802Y001122D01*
X015753Y001118D01*
X015703Y001118D01*
X015654Y001122D01*
X015606Y001130D01*
X015558Y001142D01*
X015512Y001158D01*
X015466Y001177D01*
X015423Y001200D01*
X015381Y001226D01*
X015342Y001255D01*
X015305Y001288D01*
X015271Y001323D01*
X015240Y001362D01*
X015212Y001402D01*
X015188Y001445D01*
X015167Y001489D01*
X015149Y001535D01*
X015136Y001582D01*
X015126Y001630D01*
X015120Y001679D01*
X015118Y001728D01*
X015118Y018728D02*
X015120Y018777D01*
X015126Y018826D01*
X015136Y018874D01*
X015149Y018921D01*
X015167Y018967D01*
X015188Y019011D01*
X015212Y019054D01*
X015240Y019094D01*
X015271Y019133D01*
X015305Y019168D01*
X015342Y019201D01*
X015381Y019230D01*
X015423Y019256D01*
X015466Y019279D01*
X015512Y019298D01*
X015558Y019314D01*
X015606Y019326D01*
X015654Y019334D01*
X015703Y019338D01*
X015753Y019338D01*
X015802Y019334D01*
X015850Y019326D01*
X015898Y019314D01*
X015944Y019298D01*
X015990Y019279D01*
X016033Y019256D01*
X016075Y019230D01*
X016114Y019201D01*
X016151Y019168D01*
X016185Y019133D01*
X016216Y019094D01*
X016244Y019054D01*
X016268Y019011D01*
X016289Y018967D01*
X016307Y018921D01*
X016320Y018874D01*
X016330Y018826D01*
X016336Y018777D01*
X016338Y018728D01*
X016336Y018679D01*
X016330Y018630D01*
X016320Y018582D01*
X016307Y018535D01*
X016289Y018489D01*
X016268Y018445D01*
X016244Y018402D01*
X016216Y018362D01*
X016185Y018323D01*
X016151Y018288D01*
X016114Y018255D01*
X016075Y018226D01*
X016033Y018200D01*
X015990Y018177D01*
X015944Y018158D01*
X015898Y018142D01*
X015850Y018130D01*
X015802Y018122D01*
X015753Y018118D01*
X015703Y018118D01*
X015654Y018122D01*
X015606Y018130D01*
X015558Y018142D01*
X015512Y018158D01*
X015466Y018177D01*
X015423Y018200D01*
X015381Y018226D01*
X015342Y018255D01*
X015305Y018288D01*
X015271Y018323D01*
X015240Y018362D01*
X015212Y018402D01*
X015188Y018445D01*
X015167Y018489D01*
X015149Y018535D01*
X015136Y018582D01*
X015126Y018630D01*
X015120Y018679D01*
X015118Y018728D01*
X002118Y018728D02*
X002120Y018777D01*
X002126Y018826D01*
X002136Y018874D01*
X002149Y018921D01*
X002167Y018967D01*
X002188Y019011D01*
X002212Y019054D01*
X002240Y019094D01*
X002271Y019133D01*
X002305Y019168D01*
X002342Y019201D01*
X002381Y019230D01*
X002423Y019256D01*
X002466Y019279D01*
X002512Y019298D01*
X002558Y019314D01*
X002606Y019326D01*
X002654Y019334D01*
X002703Y019338D01*
X002753Y019338D01*
X002802Y019334D01*
X002850Y019326D01*
X002898Y019314D01*
X002944Y019298D01*
X002990Y019279D01*
X003033Y019256D01*
X003075Y019230D01*
X003114Y019201D01*
X003151Y019168D01*
X003185Y019133D01*
X003216Y019094D01*
X003244Y019054D01*
X003268Y019011D01*
X003289Y018967D01*
X003307Y018921D01*
X003320Y018874D01*
X003330Y018826D01*
X003336Y018777D01*
X003338Y018728D01*
X003336Y018679D01*
X003330Y018630D01*
X003320Y018582D01*
X003307Y018535D01*
X003289Y018489D01*
X003268Y018445D01*
X003244Y018402D01*
X003216Y018362D01*
X003185Y018323D01*
X003151Y018288D01*
X003114Y018255D01*
X003075Y018226D01*
X003033Y018200D01*
X002990Y018177D01*
X002944Y018158D01*
X002898Y018142D01*
X002850Y018130D01*
X002802Y018122D01*
X002753Y018118D01*
X002703Y018118D01*
X002654Y018122D01*
X002606Y018130D01*
X002558Y018142D01*
X002512Y018158D01*
X002466Y018177D01*
X002423Y018200D01*
X002381Y018226D01*
X002342Y018255D01*
X002305Y018288D01*
X002271Y018323D01*
X002240Y018362D01*
X002212Y018402D01*
X002188Y018445D01*
X002167Y018489D01*
X002149Y018535D01*
X002136Y018582D01*
X002126Y018630D01*
X002120Y018679D01*
X002118Y018728D01*
D11*
X002728Y018728D03*
X015728Y018728D03*
X015728Y001728D03*
X002728Y001728D03*
D12*
X000728Y001728D02*
X000728Y018728D01*
X000730Y018788D01*
X000735Y018849D01*
X000744Y018908D01*
X000757Y018967D01*
X000773Y019025D01*
X000793Y019083D01*
X000816Y019138D01*
X000843Y019193D01*
X000872Y019245D01*
X000905Y019296D01*
X000941Y019345D01*
X000979Y019391D01*
X001021Y019435D01*
X001065Y019477D01*
X001111Y019515D01*
X001160Y019551D01*
X001211Y019584D01*
X001263Y019613D01*
X001318Y019640D01*
X001373Y019663D01*
X001431Y019683D01*
X001489Y019699D01*
X001548Y019712D01*
X001607Y019721D01*
X001668Y019726D01*
X001728Y019728D01*
X016228Y019728D01*
X016288Y019726D01*
X016349Y019721D01*
X016408Y019712D01*
X016467Y019699D01*
X016526Y019683D01*
X016583Y019663D01*
X016638Y019640D01*
X016693Y019613D01*
X016745Y019584D01*
X016796Y019551D01*
X016845Y019515D01*
X016891Y019477D01*
X016935Y019435D01*
X016977Y019391D01*
X017015Y019345D01*
X017051Y019296D01*
X017084Y019245D01*
X017113Y019193D01*
X017140Y019138D01*
X017163Y019083D01*
X017183Y019026D01*
X017199Y018967D01*
X017212Y018908D01*
X017221Y018849D01*
X017226Y018788D01*
X017228Y018728D01*
X017228Y001728D01*
X017226Y001665D01*
X017220Y001603D01*
X017210Y001541D01*
X017197Y001479D01*
X017179Y001419D01*
X017158Y001360D01*
X017133Y001302D01*
X017104Y001246D01*
X017072Y001192D01*
X017037Y001140D01*
X016999Y001091D01*
X016957Y001043D01*
X016913Y000999D01*
X016865Y000957D01*
X016816Y000919D01*
X016764Y000884D01*
X016710Y000852D01*
X016654Y000823D01*
X016596Y000798D01*
X016537Y000777D01*
X016477Y000759D01*
X016415Y000746D01*
X016353Y000736D01*
X016291Y000730D01*
X016228Y000728D01*
X001728Y000728D01*
X001668Y000730D01*
X001607Y000735D01*
X001548Y000744D01*
X001489Y000757D01*
X001431Y000773D01*
X001373Y000793D01*
X001318Y000816D01*
X001263Y000843D01*
X001211Y000872D01*
X001160Y000905D01*
X001111Y000941D01*
X001065Y000979D01*
X001021Y001021D01*
X000979Y001065D01*
X000941Y001111D01*
X000905Y001160D01*
X000872Y001211D01*
X000843Y001263D01*
X000816Y001318D01*
X000793Y001373D01*
X000773Y001431D01*
X000757Y001489D01*
X000744Y001548D01*
X000735Y001607D01*
X000730Y001668D01*
X000728Y001728D01*
D13*
X006228Y003228D03*
X007228Y004228D03*
X006228Y006228D03*
X007228Y008228D03*
X006228Y009228D03*
X006228Y010978D03*
X007228Y011978D03*
X006228Y013978D03*
X007228Y015978D03*
X006228Y016978D03*
X011728Y009228D03*
X010728Y008228D03*
X011728Y006228D03*
X010728Y004228D03*
X011728Y003228D03*
D14*
X015728Y004228D03*
X015728Y008228D03*
X002228Y008228D03*
X002228Y011978D03*
X002228Y015978D03*
X002228Y004228D03*
D15*
X010728Y013213D02*
X010728Y013728D01*
X010728Y014728D02*
X010728Y015243D01*
X011728Y015243D02*
X011728Y014728D01*
X012728Y014728D02*
X012728Y015243D01*
X012728Y013728D02*
X012728Y013213D01*
X011728Y013213D02*
X011728Y013728D01*
M02*
