%
M48
M72
T01C0.0315
T02C0.0500
T03C0.1220
%
T01
X10728Y13728
X10728Y14728
X11728Y14728
X12728Y14728
X12728Y13728
X11728Y13728
T02
X2228Y4228
X2228Y8228
X2228Y11978
X2228Y15978
X6228Y16978
X7228Y15978
X6228Y13978
X7228Y11978
X6228Y10978
X6228Y9228
X7228Y8228
X6228Y6228
X7228Y4228
X6228Y3228
X10728Y4228
X11728Y3228
X11728Y6228
X10728Y8228
X11728Y9228
X15728Y8228
X15728Y4228
T03
X2728Y1728
X15728Y1728
X15728Y18728
X2728Y18728
M30
