G75*
G70*
%OFA0B0*%
%FSLAX24Y24*%
%IPPOS*%
%LPD*%
%AMOC8*
5,1,8,0,0,1.08239X$1,22.5*
%
%ADD10C,0.0000*%
%ADD11C,0.0160*%
%ADD12C,0.1000*%
%ADD13C,0.1600*%
%ADD14C,0.0515*%
%ADD15C,0.0320*%
%ADD16C,0.0240*%
D10*
X002118Y001728D02*
X002120Y001777D01*
X002126Y001826D01*
X002136Y001874D01*
X002149Y001921D01*
X002167Y001967D01*
X002188Y002011D01*
X002212Y002054D01*
X002240Y002094D01*
X002271Y002133D01*
X002305Y002168D01*
X002342Y002201D01*
X002381Y002230D01*
X002423Y002256D01*
X002466Y002279D01*
X002512Y002298D01*
X002558Y002314D01*
X002606Y002326D01*
X002654Y002334D01*
X002703Y002338D01*
X002753Y002338D01*
X002802Y002334D01*
X002850Y002326D01*
X002898Y002314D01*
X002944Y002298D01*
X002990Y002279D01*
X003033Y002256D01*
X003075Y002230D01*
X003114Y002201D01*
X003151Y002168D01*
X003185Y002133D01*
X003216Y002094D01*
X003244Y002054D01*
X003268Y002011D01*
X003289Y001967D01*
X003307Y001921D01*
X003320Y001874D01*
X003330Y001826D01*
X003336Y001777D01*
X003338Y001728D01*
X003336Y001679D01*
X003330Y001630D01*
X003320Y001582D01*
X003307Y001535D01*
X003289Y001489D01*
X003268Y001445D01*
X003244Y001402D01*
X003216Y001362D01*
X003185Y001323D01*
X003151Y001288D01*
X003114Y001255D01*
X003075Y001226D01*
X003033Y001200D01*
X002990Y001177D01*
X002944Y001158D01*
X002898Y001142D01*
X002850Y001130D01*
X002802Y001122D01*
X002753Y001118D01*
X002703Y001118D01*
X002654Y001122D01*
X002606Y001130D01*
X002558Y001142D01*
X002512Y001158D01*
X002466Y001177D01*
X002423Y001200D01*
X002381Y001226D01*
X002342Y001255D01*
X002305Y001288D01*
X002271Y001323D01*
X002240Y001362D01*
X002212Y001402D01*
X002188Y001445D01*
X002167Y001489D01*
X002149Y001535D01*
X002136Y001582D01*
X002126Y001630D01*
X002120Y001679D01*
X002118Y001728D01*
X015118Y001728D02*
X015120Y001777D01*
X015126Y001826D01*
X015136Y001874D01*
X015149Y001921D01*
X015167Y001967D01*
X015188Y002011D01*
X015212Y002054D01*
X015240Y002094D01*
X015271Y002133D01*
X015305Y002168D01*
X015342Y002201D01*
X015381Y002230D01*
X015423Y002256D01*
X015466Y002279D01*
X015512Y002298D01*
X015558Y002314D01*
X015606Y002326D01*
X015654Y002334D01*
X015703Y002338D01*
X015753Y002338D01*
X015802Y002334D01*
X015850Y002326D01*
X015898Y002314D01*
X015944Y002298D01*
X015990Y002279D01*
X016033Y002256D01*
X016075Y002230D01*
X016114Y002201D01*
X016151Y002168D01*
X016185Y002133D01*
X016216Y002094D01*
X016244Y002054D01*
X016268Y002011D01*
X016289Y001967D01*
X016307Y001921D01*
X016320Y001874D01*
X016330Y001826D01*
X016336Y001777D01*
X016338Y001728D01*
X016336Y001679D01*
X016330Y001630D01*
X016320Y001582D01*
X016307Y001535D01*
X016289Y001489D01*
X016268Y001445D01*
X016244Y001402D01*
X016216Y001362D01*
X016185Y001323D01*
X016151Y001288D01*
X016114Y001255D01*
X016075Y001226D01*
X016033Y001200D01*
X015990Y001177D01*
X015944Y001158D01*
X015898Y001142D01*
X015850Y001130D01*
X015802Y001122D01*
X015753Y001118D01*
X015703Y001118D01*
X015654Y001122D01*
X015606Y001130D01*
X015558Y001142D01*
X015512Y001158D01*
X015466Y001177D01*
X015423Y001200D01*
X015381Y001226D01*
X015342Y001255D01*
X015305Y001288D01*
X015271Y001323D01*
X015240Y001362D01*
X015212Y001402D01*
X015188Y001445D01*
X015167Y001489D01*
X015149Y001535D01*
X015136Y001582D01*
X015126Y001630D01*
X015120Y001679D01*
X015118Y001728D01*
X015118Y018728D02*
X015120Y018777D01*
X015126Y018826D01*
X015136Y018874D01*
X015149Y018921D01*
X015167Y018967D01*
X015188Y019011D01*
X015212Y019054D01*
X015240Y019094D01*
X015271Y019133D01*
X015305Y019168D01*
X015342Y019201D01*
X015381Y019230D01*
X015423Y019256D01*
X015466Y019279D01*
X015512Y019298D01*
X015558Y019314D01*
X015606Y019326D01*
X015654Y019334D01*
X015703Y019338D01*
X015753Y019338D01*
X015802Y019334D01*
X015850Y019326D01*
X015898Y019314D01*
X015944Y019298D01*
X015990Y019279D01*
X016033Y019256D01*
X016075Y019230D01*
X016114Y019201D01*
X016151Y019168D01*
X016185Y019133D01*
X016216Y019094D01*
X016244Y019054D01*
X016268Y019011D01*
X016289Y018967D01*
X016307Y018921D01*
X016320Y018874D01*
X016330Y018826D01*
X016336Y018777D01*
X016338Y018728D01*
X016336Y018679D01*
X016330Y018630D01*
X016320Y018582D01*
X016307Y018535D01*
X016289Y018489D01*
X016268Y018445D01*
X016244Y018402D01*
X016216Y018362D01*
X016185Y018323D01*
X016151Y018288D01*
X016114Y018255D01*
X016075Y018226D01*
X016033Y018200D01*
X015990Y018177D01*
X015944Y018158D01*
X015898Y018142D01*
X015850Y018130D01*
X015802Y018122D01*
X015753Y018118D01*
X015703Y018118D01*
X015654Y018122D01*
X015606Y018130D01*
X015558Y018142D01*
X015512Y018158D01*
X015466Y018177D01*
X015423Y018200D01*
X015381Y018226D01*
X015342Y018255D01*
X015305Y018288D01*
X015271Y018323D01*
X015240Y018362D01*
X015212Y018402D01*
X015188Y018445D01*
X015167Y018489D01*
X015149Y018535D01*
X015136Y018582D01*
X015126Y018630D01*
X015120Y018679D01*
X015118Y018728D01*
X002118Y018728D02*
X002120Y018777D01*
X002126Y018826D01*
X002136Y018874D01*
X002149Y018921D01*
X002167Y018967D01*
X002188Y019011D01*
X002212Y019054D01*
X002240Y019094D01*
X002271Y019133D01*
X002305Y019168D01*
X002342Y019201D01*
X002381Y019230D01*
X002423Y019256D01*
X002466Y019279D01*
X002512Y019298D01*
X002558Y019314D01*
X002606Y019326D01*
X002654Y019334D01*
X002703Y019338D01*
X002753Y019338D01*
X002802Y019334D01*
X002850Y019326D01*
X002898Y019314D01*
X002944Y019298D01*
X002990Y019279D01*
X003033Y019256D01*
X003075Y019230D01*
X003114Y019201D01*
X003151Y019168D01*
X003185Y019133D01*
X003216Y019094D01*
X003244Y019054D01*
X003268Y019011D01*
X003289Y018967D01*
X003307Y018921D01*
X003320Y018874D01*
X003330Y018826D01*
X003336Y018777D01*
X003338Y018728D01*
X003336Y018679D01*
X003330Y018630D01*
X003320Y018582D01*
X003307Y018535D01*
X003289Y018489D01*
X003268Y018445D01*
X003244Y018402D01*
X003216Y018362D01*
X003185Y018323D01*
X003151Y018288D01*
X003114Y018255D01*
X003075Y018226D01*
X003033Y018200D01*
X002990Y018177D01*
X002944Y018158D01*
X002898Y018142D01*
X002850Y018130D01*
X002802Y018122D01*
X002753Y018118D01*
X002703Y018118D01*
X002654Y018122D01*
X002606Y018130D01*
X002558Y018142D01*
X002512Y018158D01*
X002466Y018177D01*
X002423Y018200D01*
X002381Y018226D01*
X002342Y018255D01*
X002305Y018288D01*
X002271Y018323D01*
X002240Y018362D01*
X002212Y018402D01*
X002188Y018445D01*
X002167Y018489D01*
X002149Y018535D01*
X002136Y018582D01*
X002126Y018630D01*
X002120Y018679D01*
X002118Y018728D01*
D11*
X001728Y019728D02*
X001668Y019726D01*
X001607Y019721D01*
X001548Y019712D01*
X001489Y019699D01*
X001431Y019683D01*
X001373Y019663D01*
X001318Y019640D01*
X001263Y019613D01*
X001211Y019584D01*
X001160Y019551D01*
X001111Y019515D01*
X001065Y019477D01*
X001021Y019435D01*
X000979Y019391D01*
X000941Y019345D01*
X000905Y019296D01*
X000872Y019245D01*
X000843Y019193D01*
X000816Y019138D01*
X000793Y019083D01*
X000773Y019025D01*
X000757Y018967D01*
X000744Y018908D01*
X000735Y018849D01*
X000730Y018788D01*
X000728Y018728D01*
X000728Y001728D01*
X000730Y001668D01*
X000735Y001607D01*
X000744Y001548D01*
X000757Y001489D01*
X000773Y001431D01*
X000793Y001373D01*
X000816Y001318D01*
X000843Y001263D01*
X000872Y001211D01*
X000905Y001160D01*
X000941Y001111D01*
X000979Y001065D01*
X001021Y001021D01*
X001065Y000979D01*
X001111Y000941D01*
X001160Y000905D01*
X001211Y000872D01*
X001263Y000843D01*
X001318Y000816D01*
X001373Y000793D01*
X001431Y000773D01*
X001489Y000757D01*
X001548Y000744D01*
X001607Y000735D01*
X001668Y000730D01*
X001728Y000728D01*
X016228Y000728D01*
X016291Y000730D01*
X016353Y000736D01*
X016415Y000746D01*
X016477Y000759D01*
X016537Y000777D01*
X016596Y000798D01*
X016654Y000823D01*
X016710Y000852D01*
X016764Y000884D01*
X016816Y000919D01*
X016865Y000957D01*
X016913Y000999D01*
X016957Y001043D01*
X016999Y001091D01*
X017037Y001140D01*
X017072Y001192D01*
X017104Y001246D01*
X017133Y001302D01*
X017158Y001360D01*
X017179Y001419D01*
X017197Y001479D01*
X017210Y001541D01*
X017220Y001603D01*
X017226Y001665D01*
X017228Y001728D01*
X017228Y018728D01*
X017226Y018788D01*
X017221Y018849D01*
X017212Y018908D01*
X017199Y018967D01*
X017183Y019026D01*
X017163Y019083D01*
X017140Y019138D01*
X017113Y019193D01*
X017084Y019245D01*
X017051Y019296D01*
X017015Y019345D01*
X016977Y019391D01*
X016935Y019435D01*
X016891Y019477D01*
X016845Y019515D01*
X016796Y019551D01*
X016745Y019584D01*
X016693Y019613D01*
X016638Y019640D01*
X016583Y019663D01*
X016526Y019683D01*
X016467Y019699D01*
X016408Y019712D01*
X016349Y019721D01*
X016288Y019726D01*
X016228Y019728D01*
X001728Y019728D01*
D12*
X006228Y016978D03*
X007228Y015978D03*
X006228Y013978D03*
X007228Y011978D03*
X006228Y010978D03*
X006228Y009228D03*
X007228Y008228D03*
X006228Y006228D03*
X007228Y004228D03*
X006228Y003228D03*
X010728Y004228D03*
X011728Y003228D03*
X011728Y006228D03*
X010728Y008228D03*
X011728Y009228D03*
D13*
X015728Y008228D03*
X015728Y004228D03*
X002228Y004228D03*
X002228Y008228D03*
X002228Y011978D03*
X002228Y015978D03*
D14*
X010728Y015243D02*
X010728Y014728D01*
X010728Y013728D02*
X010728Y013213D01*
X011728Y013213D02*
X011728Y013728D01*
X011728Y014728D02*
X011728Y015243D01*
X012728Y015243D02*
X012728Y014728D01*
X012728Y013728D02*
X012728Y013213D01*
D15*
X012728Y012728D02*
X013228Y012228D01*
X013728Y012228D01*
X014228Y012728D01*
X014228Y017228D01*
X008478Y017228D01*
X007228Y015978D01*
X008228Y015728D02*
X008728Y016228D01*
X012228Y016228D01*
X012728Y015728D01*
X012728Y014728D01*
X012728Y013728D02*
X012728Y012728D01*
X011728Y013728D02*
X011728Y010728D01*
X010728Y009728D01*
X010728Y008228D01*
X009228Y008728D02*
X009228Y009728D01*
X010728Y011228D01*
X010728Y013728D01*
X010728Y014728D02*
X010728Y015228D01*
X010228Y015728D01*
X009228Y015728D01*
X009228Y011728D01*
X007728Y010228D01*
X005228Y010228D01*
X004728Y009728D01*
X004728Y005228D01*
X005728Y004228D01*
X007228Y004228D01*
X007228Y008228D02*
X008728Y008228D01*
X009228Y008728D01*
X007978Y011978D02*
X007228Y011978D01*
X007978Y011978D02*
X008228Y012228D01*
X008228Y015728D01*
D16*
X001104Y001410D02*
X001233Y001233D01*
X001410Y001104D01*
X001618Y001036D01*
X001728Y001028D01*
X002254Y001028D01*
X002024Y001258D01*
X001898Y001563D01*
X001898Y001893D01*
X002024Y002198D01*
X002258Y002432D01*
X002563Y002558D01*
X002893Y002558D01*
X003198Y002432D01*
X003432Y002198D01*
X003558Y001893D01*
X003558Y001563D01*
X003432Y001258D01*
X003202Y001028D01*
X015254Y001028D01*
X015024Y001258D01*
X014898Y001563D01*
X014898Y001893D01*
X015024Y002198D01*
X015258Y002432D01*
X015563Y002558D01*
X015893Y002558D01*
X016198Y002432D01*
X016432Y002198D01*
X016558Y001893D01*
X016558Y001563D01*
X016432Y001258D01*
X016202Y001028D01*
X016228Y001028D01*
X016337Y001036D01*
X016546Y001104D01*
X016723Y001233D01*
X016852Y001410D01*
X016919Y001618D01*
X016928Y001728D01*
X016928Y018668D01*
X016928Y018680D01*
X016928Y018728D01*
X016919Y018837D01*
X016852Y019046D01*
X016723Y019223D01*
X016546Y019352D01*
X016337Y019419D01*
X016228Y019428D01*
X016202Y019428D01*
X016432Y019198D01*
X016558Y018893D01*
X016558Y018563D01*
X016432Y018258D01*
X016198Y018024D01*
X015893Y017898D01*
X015563Y017898D01*
X015258Y018024D01*
X015024Y018258D01*
X014898Y018563D01*
X014898Y018893D01*
X015024Y019198D01*
X015254Y019428D01*
X003202Y019428D01*
X003432Y019198D01*
X003558Y018893D01*
X003558Y018563D01*
X003432Y018258D01*
X003198Y018024D01*
X002893Y017898D01*
X002563Y017898D01*
X002258Y018024D01*
X002024Y018258D01*
X001898Y018563D01*
X001898Y018893D01*
X002024Y019198D01*
X002254Y019428D01*
X001788Y019428D01*
X001779Y019428D01*
X001728Y019428D01*
X001618Y019419D01*
X001410Y019352D01*
X001233Y019223D01*
X001104Y019046D01*
X001036Y018837D01*
X001036Y018837D01*
X001028Y018728D01*
X001028Y001788D01*
X001028Y001728D01*
X001036Y001618D01*
X001104Y001410D01*
X001113Y001398D02*
X001966Y001398D01*
X002122Y001159D02*
X001334Y001159D01*
X001035Y001636D02*
X001898Y001636D01*
X001898Y001875D02*
X001028Y001875D01*
X001028Y002113D02*
X001989Y002113D01*
X002178Y002352D02*
X001028Y002352D01*
X001028Y002590D02*
X006016Y002590D01*
X006095Y002558D02*
X006361Y002558D01*
X006607Y002660D01*
X006796Y002848D01*
X006898Y003095D01*
X006898Y003361D01*
X006796Y003607D01*
X006607Y003796D01*
X006361Y003898D01*
X006095Y003898D01*
X005848Y003796D01*
X005660Y003607D01*
X005558Y003361D01*
X005558Y003095D01*
X005660Y002848D01*
X005848Y002660D01*
X006095Y002558D01*
X006440Y002590D02*
X011516Y002590D01*
X011595Y002558D02*
X011861Y002558D01*
X012107Y002660D01*
X012296Y002848D01*
X012398Y003095D01*
X012398Y003361D01*
X012296Y003607D01*
X012107Y003796D01*
X011861Y003898D01*
X011595Y003898D01*
X011348Y003796D01*
X011160Y003607D01*
X011058Y003361D01*
X011058Y003095D01*
X011160Y002848D01*
X011348Y002660D01*
X011595Y002558D01*
X011940Y002590D02*
X016928Y002590D01*
X016928Y002352D02*
X016278Y002352D01*
X016467Y002113D02*
X016928Y002113D01*
X016928Y001875D02*
X016558Y001875D01*
X016558Y001636D02*
X016921Y001636D01*
X016843Y001398D02*
X016490Y001398D01*
X016621Y001159D02*
X016333Y001159D01*
X015122Y001159D02*
X003333Y001159D01*
X003490Y001398D02*
X014966Y001398D01*
X014898Y001636D02*
X003558Y001636D01*
X003558Y001875D02*
X014898Y001875D01*
X014989Y002113D02*
X003467Y002113D01*
X003278Y002352D02*
X015178Y002352D01*
X015535Y003258D02*
X015921Y003258D01*
X016277Y003406D01*
X016550Y003678D01*
X016698Y004035D01*
X016698Y004421D01*
X016550Y004777D01*
X016277Y005050D01*
X015921Y005198D01*
X015535Y005198D01*
X015178Y005050D01*
X014906Y004777D01*
X014758Y004421D01*
X014758Y004035D01*
X014906Y003678D01*
X015178Y003406D01*
X015535Y003258D01*
X015419Y003306D02*
X012398Y003306D01*
X012387Y003067D02*
X016928Y003067D01*
X016928Y002829D02*
X012276Y002829D01*
X012322Y003545D02*
X015039Y003545D01*
X014862Y003783D02*
X012120Y003783D01*
X011336Y003783D02*
X011231Y003783D01*
X011296Y003848D02*
X011398Y004095D01*
X011398Y004361D01*
X011296Y004607D01*
X011107Y004796D01*
X010861Y004898D01*
X010595Y004898D01*
X010348Y004796D01*
X010160Y004607D01*
X010058Y004361D01*
X010058Y004095D01*
X010160Y003848D01*
X010348Y003660D01*
X010595Y003558D01*
X010861Y003558D01*
X011107Y003660D01*
X011296Y003848D01*
X011368Y004022D02*
X014763Y004022D01*
X014758Y004260D02*
X011398Y004260D01*
X011341Y004499D02*
X014790Y004499D01*
X014889Y004737D02*
X011166Y004737D01*
X011496Y005545D02*
X011587Y005520D01*
X011681Y005508D01*
X011723Y005508D01*
X011723Y006223D01*
X011733Y006223D01*
X011733Y006233D01*
X012448Y006233D01*
X012448Y006275D01*
X012436Y006369D01*
X012411Y006460D01*
X012375Y006547D01*
X012328Y006629D01*
X012270Y006704D01*
X012204Y006770D01*
X012129Y006828D01*
X012047Y006875D01*
X011960Y006911D01*
X011869Y006936D01*
X011775Y006948D01*
X011733Y006948D01*
X011733Y006233D01*
X011723Y006233D01*
X011723Y006948D01*
X011681Y006948D01*
X011587Y006936D01*
X011496Y006911D01*
X011409Y006875D01*
X011327Y006828D01*
X011252Y006770D01*
X011185Y006704D01*
X011128Y006629D01*
X011081Y006547D01*
X011045Y006460D01*
X011020Y006369D01*
X011008Y006275D01*
X011008Y006233D01*
X011723Y006233D01*
X011723Y006223D01*
X011008Y006223D01*
X011008Y006181D01*
X011020Y006087D01*
X011045Y005996D01*
X011081Y005909D01*
X011128Y005827D01*
X011185Y005752D01*
X011252Y005685D01*
X011327Y005628D01*
X011409Y005581D01*
X011496Y005545D01*
X011733Y005508D02*
X011775Y005508D01*
X011869Y005520D01*
X011960Y005545D01*
X012047Y005581D01*
X012129Y005628D01*
X012204Y005685D01*
X012270Y005752D01*
X012328Y005827D01*
X012375Y005909D01*
X012411Y005996D01*
X012436Y006087D01*
X012448Y006181D01*
X012448Y006223D01*
X011733Y006223D01*
X011733Y005508D01*
X011723Y005691D02*
X011733Y005691D01*
X011723Y005930D02*
X011733Y005930D01*
X011723Y006169D02*
X011733Y006169D01*
X011723Y006407D02*
X011733Y006407D01*
X011723Y006646D02*
X011733Y006646D01*
X011723Y006884D02*
X011733Y006884D01*
X012025Y006884D02*
X016928Y006884D01*
X016928Y006646D02*
X012315Y006646D01*
X012425Y006407D02*
X016928Y006407D01*
X016928Y006169D02*
X012446Y006169D01*
X012384Y005930D02*
X016928Y005930D01*
X016928Y005691D02*
X012210Y005691D01*
X011246Y005691D02*
X006710Y005691D01*
X006704Y005685D02*
X006770Y005752D01*
X006828Y005827D01*
X006875Y005909D01*
X006911Y005996D01*
X006936Y006087D01*
X006948Y006181D01*
X006948Y006223D01*
X006233Y006223D01*
X006233Y006233D01*
X006948Y006233D01*
X006948Y006275D01*
X006936Y006369D01*
X006911Y006460D01*
X006875Y006547D01*
X006828Y006629D01*
X006770Y006704D01*
X006704Y006770D01*
X006629Y006828D01*
X006547Y006875D01*
X006460Y006911D01*
X006369Y006936D01*
X006275Y006948D01*
X006233Y006948D01*
X006233Y006233D01*
X006223Y006233D01*
X006223Y006948D01*
X006181Y006948D01*
X006087Y006936D01*
X005996Y006911D01*
X005909Y006875D01*
X005827Y006828D01*
X005752Y006770D01*
X005685Y006704D01*
X005628Y006629D01*
X005581Y006547D01*
X005545Y006460D01*
X005520Y006369D01*
X005508Y006275D01*
X005508Y006233D01*
X006223Y006233D01*
X006223Y006223D01*
X006233Y006223D01*
X006233Y005508D01*
X006275Y005508D01*
X006369Y005520D01*
X006460Y005545D01*
X006547Y005581D01*
X006629Y005628D01*
X006704Y005685D01*
X006884Y005930D02*
X011072Y005930D01*
X011009Y006169D02*
X006946Y006169D01*
X006925Y006407D02*
X011031Y006407D01*
X011141Y006646D02*
X006815Y006646D01*
X006525Y006884D02*
X011431Y006884D01*
X011107Y007660D02*
X010861Y007558D01*
X010595Y007558D01*
X010348Y007660D01*
X010160Y007848D01*
X010058Y008095D01*
X010058Y008361D01*
X010160Y008607D01*
X010348Y008796D01*
X010398Y008816D01*
X010398Y009662D01*
X010398Y009794D01*
X010448Y009915D01*
X011398Y010865D01*
X011398Y012938D01*
X011365Y012971D01*
X011300Y013128D01*
X011300Y013813D01*
X011365Y013970D01*
X011486Y014090D01*
X011643Y014155D01*
X011813Y014155D01*
X011970Y014090D01*
X012090Y013970D01*
X012155Y013813D01*
X012155Y013128D01*
X012090Y012971D01*
X012058Y012938D01*
X012058Y010662D01*
X012008Y010541D01*
X011915Y010448D01*
X011058Y009591D01*
X011058Y008816D01*
X011107Y008796D01*
X011296Y008607D01*
X011398Y008361D01*
X011398Y008095D01*
X011296Y007848D01*
X011107Y007660D01*
X010962Y007600D02*
X014984Y007600D01*
X014906Y007678D02*
X015178Y007406D01*
X015535Y007258D01*
X015921Y007258D01*
X016277Y007406D01*
X016550Y007678D01*
X016698Y008035D01*
X016698Y008421D01*
X016550Y008777D01*
X016277Y009050D01*
X015921Y009198D01*
X015535Y009198D01*
X015178Y009050D01*
X014906Y008777D01*
X014758Y008421D01*
X014758Y008035D01*
X014906Y007678D01*
X014839Y007838D02*
X011286Y007838D01*
X011390Y008077D02*
X014758Y008077D01*
X014758Y008315D02*
X011398Y008315D01*
X011318Y008554D02*
X014813Y008554D01*
X014921Y008793D02*
X012240Y008793D01*
X012296Y008848D02*
X012398Y009095D01*
X012398Y009361D01*
X012296Y009607D01*
X012107Y009796D01*
X011861Y009898D01*
X011595Y009898D01*
X011348Y009796D01*
X011160Y009607D01*
X011058Y009361D01*
X011058Y009095D01*
X011160Y008848D01*
X011348Y008660D01*
X011595Y008558D01*
X011861Y008558D01*
X012107Y008660D01*
X012296Y008848D01*
X012371Y009031D02*
X015159Y009031D01*
X016296Y009031D02*
X016928Y009031D01*
X016928Y009270D02*
X012398Y009270D01*
X012337Y009508D02*
X016928Y009508D01*
X016928Y009747D02*
X012156Y009747D01*
X011690Y010224D02*
X016928Y010224D01*
X016928Y009985D02*
X011452Y009985D01*
X011299Y009747D02*
X011213Y009747D01*
X011119Y009508D02*
X011058Y009508D01*
X011058Y009270D02*
X011058Y009270D01*
X011058Y009031D02*
X011084Y009031D01*
X011111Y008793D02*
X011216Y008793D01*
X010398Y009031D02*
X009558Y009031D01*
X009558Y009270D02*
X010398Y009270D01*
X010398Y009508D02*
X009558Y009508D01*
X009558Y009591D02*
X010915Y010948D01*
X011008Y011041D01*
X011058Y011162D01*
X011058Y012938D01*
X011090Y012971D01*
X011155Y013128D01*
X011155Y013813D01*
X011090Y013970D01*
X010970Y014090D01*
X010813Y014155D01*
X010643Y014155D01*
X010486Y014090D01*
X010365Y013970D01*
X010300Y013813D01*
X010300Y013128D01*
X010365Y012971D01*
X010398Y012938D01*
X010398Y011365D01*
X008948Y009915D01*
X008898Y009794D01*
X008898Y009662D01*
X008898Y008865D01*
X008591Y008558D01*
X007816Y008558D01*
X007796Y008607D01*
X007607Y008796D01*
X007361Y008898D01*
X007095Y008898D01*
X006848Y008796D01*
X006660Y008607D01*
X006558Y008361D01*
X006558Y008095D01*
X006660Y007848D01*
X006848Y007660D01*
X007095Y007558D01*
X007361Y007558D01*
X007607Y007660D01*
X007796Y007848D01*
X007816Y007898D01*
X008662Y007898D01*
X008794Y007898D01*
X008915Y007948D01*
X009415Y008448D01*
X009508Y008541D01*
X009558Y008662D01*
X009558Y009591D01*
X009713Y009747D02*
X010398Y009747D01*
X010519Y009985D02*
X009952Y009985D01*
X010190Y010224D02*
X010757Y010224D01*
X010996Y010462D02*
X010429Y010462D01*
X010668Y010701D02*
X011234Y010701D01*
X011398Y010939D02*
X010906Y010939D01*
X011058Y011178D02*
X011398Y011178D01*
X011398Y011416D02*
X011058Y011416D01*
X011058Y011655D02*
X011398Y011655D01*
X011398Y011894D02*
X011058Y011894D01*
X011058Y012132D02*
X011398Y012132D01*
X011398Y012371D02*
X011058Y012371D01*
X011058Y012609D02*
X011398Y012609D01*
X011398Y012848D02*
X011058Y012848D01*
X011138Y013086D02*
X011318Y013086D01*
X011300Y013325D02*
X011155Y013325D01*
X011155Y013563D02*
X011300Y013563D01*
X011300Y013802D02*
X011155Y013802D01*
X011020Y014040D02*
X011436Y014040D01*
X011486Y014365D02*
X011643Y014300D01*
X011813Y014300D01*
X011970Y014365D01*
X012090Y014486D01*
X012155Y014643D01*
X012155Y015328D01*
X012090Y015485D01*
X011970Y015605D01*
X011813Y015670D01*
X011643Y015670D01*
X011486Y015605D01*
X011365Y015485D01*
X011300Y015328D01*
X011300Y014643D01*
X011365Y014486D01*
X011486Y014365D01*
X011352Y014518D02*
X011103Y014518D01*
X011090Y014486D02*
X011155Y014643D01*
X011155Y015328D01*
X011090Y015485D01*
X010970Y015605D01*
X010813Y015670D01*
X010752Y015670D01*
X010524Y015898D01*
X012091Y015898D01*
X012398Y015591D01*
X012398Y015517D01*
X012365Y015485D01*
X012300Y015328D01*
X012300Y014643D01*
X012365Y014486D01*
X012486Y014365D01*
X012643Y014300D01*
X012813Y014300D01*
X012970Y014365D01*
X013090Y014486D01*
X013155Y014643D01*
X013155Y015328D01*
X013090Y015485D01*
X013058Y015517D01*
X013058Y015794D01*
X013008Y015915D01*
X012915Y016008D01*
X012915Y016008D01*
X012508Y016415D01*
X012415Y016508D01*
X012294Y016558D01*
X008662Y016558D01*
X008541Y016508D01*
X008448Y016415D01*
X007948Y015915D01*
X007898Y015794D01*
X007898Y015662D01*
X007898Y012365D01*
X007841Y012308D01*
X007816Y012308D01*
X007796Y012357D01*
X007607Y012546D01*
X007361Y012648D01*
X007095Y012648D01*
X006848Y012546D01*
X006660Y012357D01*
X006558Y012111D01*
X006558Y011845D01*
X006660Y011598D01*
X006848Y011410D01*
X007095Y011308D01*
X007361Y011308D01*
X007607Y011410D01*
X007796Y011598D01*
X007816Y011648D01*
X007912Y011648D01*
X008044Y011648D01*
X008165Y011698D01*
X008415Y011948D01*
X008508Y012041D01*
X008558Y012162D01*
X008558Y015591D01*
X008865Y015898D01*
X008941Y015898D01*
X008898Y015794D01*
X008898Y015662D01*
X008898Y011865D01*
X007591Y010558D01*
X006755Y010558D01*
X006796Y010598D01*
X006898Y010845D01*
X006898Y011111D01*
X006796Y011357D01*
X006607Y011546D01*
X006361Y011648D01*
X006095Y011648D01*
X005848Y011546D01*
X005660Y011357D01*
X005558Y011111D01*
X005558Y010845D01*
X005660Y010598D01*
X005700Y010558D01*
X005162Y010558D01*
X005041Y010508D01*
X004948Y010415D01*
X004448Y009915D01*
X004398Y009794D01*
X004398Y009662D01*
X004398Y005162D01*
X004448Y005041D01*
X004541Y004948D01*
X005541Y003948D01*
X005662Y003898D01*
X005794Y003898D01*
X006639Y003898D01*
X006660Y003848D01*
X006848Y003660D01*
X007095Y003558D01*
X007361Y003558D01*
X007607Y003660D01*
X007796Y003848D01*
X007898Y004095D01*
X007898Y004361D01*
X007796Y004607D01*
X007607Y004796D01*
X007361Y004898D01*
X007095Y004898D01*
X006848Y004796D01*
X006660Y004607D01*
X006639Y004558D01*
X005865Y004558D01*
X005058Y005365D01*
X005058Y009591D01*
X005365Y009898D01*
X007662Y009898D01*
X007794Y009898D01*
X007915Y009948D01*
X009415Y011448D01*
X009508Y011541D01*
X009558Y011662D01*
X009558Y015398D01*
X010091Y015398D01*
X010300Y015189D01*
X010300Y014643D01*
X010365Y014486D01*
X010486Y014365D01*
X010643Y014300D01*
X010813Y014300D01*
X010970Y014365D01*
X011090Y014486D01*
X011155Y014756D02*
X011300Y014756D01*
X011300Y014995D02*
X011155Y014995D01*
X011155Y015233D02*
X011300Y015233D01*
X011360Y015472D02*
X011096Y015472D01*
X010712Y015710D02*
X012279Y015710D01*
X012360Y015472D02*
X012096Y015472D01*
X012155Y015233D02*
X012300Y015233D01*
X012300Y014995D02*
X012155Y014995D01*
X012155Y014756D02*
X012300Y014756D01*
X012352Y014518D02*
X012103Y014518D01*
X012020Y014040D02*
X012436Y014040D01*
X012486Y014090D02*
X012365Y013970D01*
X012300Y013813D01*
X012300Y013128D01*
X012365Y012971D01*
X012398Y012938D01*
X012398Y012794D01*
X012398Y012662D01*
X012448Y012541D01*
X012948Y012041D01*
X013041Y011948D01*
X013162Y011898D01*
X013662Y011898D01*
X013794Y011898D01*
X013915Y011948D01*
X014415Y012448D01*
X014508Y012541D01*
X014558Y012662D01*
X014558Y017162D01*
X014558Y017294D01*
X014508Y017415D01*
X014415Y017508D01*
X014294Y017558D01*
X008544Y017558D01*
X008412Y017558D01*
X008291Y017508D01*
X007411Y016627D01*
X007361Y016648D01*
X007095Y016648D01*
X006848Y016546D01*
X006660Y016357D01*
X006558Y016111D01*
X006558Y015845D01*
X006660Y015598D01*
X006848Y015410D01*
X007095Y015308D01*
X007361Y015308D01*
X007607Y015410D01*
X007796Y015598D01*
X007898Y015845D01*
X007898Y016111D01*
X007877Y016161D01*
X008615Y016898D01*
X013898Y016898D01*
X013898Y012865D01*
X013591Y012558D01*
X013365Y012558D01*
X013058Y012865D01*
X013058Y012938D01*
X013090Y012971D01*
X013155Y013128D01*
X013155Y013813D01*
X013090Y013970D01*
X012970Y014090D01*
X012813Y014155D01*
X012643Y014155D01*
X012486Y014090D01*
X012300Y013802D02*
X012155Y013802D01*
X012155Y013563D02*
X012300Y013563D01*
X012300Y013325D02*
X012155Y013325D01*
X012138Y013086D02*
X012318Y013086D01*
X012398Y012848D02*
X012058Y012848D01*
X012058Y012609D02*
X012420Y012609D01*
X012618Y012371D02*
X012058Y012371D01*
X012058Y012132D02*
X012857Y012132D01*
X013313Y012609D02*
X013643Y012609D01*
X013881Y012848D02*
X013075Y012848D01*
X013138Y013086D02*
X013898Y013086D01*
X013898Y013325D02*
X013155Y013325D01*
X013155Y013563D02*
X013898Y013563D01*
X013898Y013802D02*
X013155Y013802D01*
X013020Y014040D02*
X013898Y014040D01*
X013898Y014279D02*
X009558Y014279D01*
X009558Y014040D02*
X010436Y014040D01*
X010300Y013802D02*
X009558Y013802D01*
X009558Y013563D02*
X010300Y013563D01*
X010300Y013325D02*
X009558Y013325D01*
X009558Y013086D02*
X010318Y013086D01*
X010398Y012848D02*
X009558Y012848D01*
X009558Y012609D02*
X010398Y012609D01*
X010398Y012371D02*
X009558Y012371D01*
X009558Y012132D02*
X010398Y012132D01*
X010398Y011894D02*
X009558Y011894D01*
X009555Y011655D02*
X010398Y011655D01*
X010398Y011416D02*
X009383Y011416D01*
X009145Y011178D02*
X010211Y011178D01*
X009973Y010939D02*
X008906Y010939D01*
X008668Y010701D02*
X009734Y010701D01*
X009496Y010462D02*
X008429Y010462D01*
X008190Y010224D02*
X009257Y010224D01*
X009019Y009985D02*
X007952Y009985D01*
X007734Y010701D02*
X006838Y010701D01*
X006898Y010939D02*
X007973Y010939D01*
X008211Y011178D02*
X006870Y011178D01*
X006842Y011416D02*
X006737Y011416D01*
X006636Y011655D02*
X003144Y011655D01*
X003198Y011785D02*
X003050Y011428D01*
X002777Y011156D01*
X002421Y011008D01*
X002035Y011008D01*
X001678Y011156D01*
X001406Y011428D01*
X001258Y011785D01*
X001258Y012171D01*
X001406Y012527D01*
X001678Y012800D01*
X002035Y012948D01*
X002421Y012948D01*
X002777Y012800D01*
X003050Y012527D01*
X003198Y012171D01*
X003198Y011785D01*
X003198Y011894D02*
X006558Y011894D01*
X006567Y012132D02*
X003198Y012132D01*
X003115Y012371D02*
X006673Y012371D01*
X007001Y012609D02*
X002968Y012609D01*
X002662Y012848D02*
X007898Y012848D01*
X007898Y013086D02*
X001028Y013086D01*
X001028Y012848D02*
X001793Y012848D01*
X001487Y012609D02*
X001028Y012609D01*
X001028Y012371D02*
X001341Y012371D01*
X001258Y012132D02*
X001028Y012132D01*
X001028Y011894D02*
X001258Y011894D01*
X001312Y011655D02*
X001028Y011655D01*
X001028Y011416D02*
X001417Y011416D01*
X001656Y011178D02*
X001028Y011178D01*
X001028Y010939D02*
X005558Y010939D01*
X005586Y011178D02*
X002800Y011178D01*
X003038Y011416D02*
X005719Y011416D01*
X005617Y010701D02*
X001028Y010701D01*
X001028Y010462D02*
X004996Y010462D01*
X004757Y010224D02*
X001028Y010224D01*
X001028Y009985D02*
X004519Y009985D01*
X004398Y009747D02*
X001028Y009747D01*
X001028Y009508D02*
X004398Y009508D01*
X004398Y009270D02*
X001028Y009270D01*
X001028Y009031D02*
X001659Y009031D01*
X001678Y009050D02*
X001406Y008777D01*
X001258Y008421D01*
X001258Y008035D01*
X001406Y007678D01*
X001678Y007406D01*
X002035Y007258D01*
X002421Y007258D01*
X002777Y007406D01*
X003050Y007678D01*
X003198Y008035D01*
X003198Y008421D01*
X003050Y008777D01*
X002777Y009050D01*
X002421Y009198D01*
X002035Y009198D01*
X001678Y009050D01*
X001421Y008793D02*
X001028Y008793D01*
X001028Y008554D02*
X001313Y008554D01*
X001258Y008315D02*
X001028Y008315D01*
X001028Y008077D02*
X001258Y008077D01*
X001339Y007838D02*
X001028Y007838D01*
X001028Y007600D02*
X001484Y007600D01*
X001785Y007361D02*
X001028Y007361D01*
X001028Y007123D02*
X004398Y007123D01*
X004398Y007361D02*
X002670Y007361D01*
X002972Y007600D02*
X004398Y007600D01*
X004398Y007838D02*
X003116Y007838D01*
X003198Y008077D02*
X004398Y008077D01*
X004398Y008315D02*
X003198Y008315D01*
X003143Y008554D02*
X004398Y008554D01*
X004398Y008793D02*
X003035Y008793D01*
X002796Y009031D02*
X004398Y009031D01*
X005058Y009031D02*
X005584Y009031D01*
X005558Y009095D02*
X005558Y009361D01*
X005660Y009607D01*
X005848Y009796D01*
X006095Y009898D01*
X006361Y009898D01*
X006607Y009796D01*
X006796Y009607D01*
X006898Y009361D01*
X006898Y009095D01*
X006796Y008848D01*
X006607Y008660D01*
X006361Y008558D01*
X006095Y008558D01*
X005848Y008660D01*
X005660Y008848D01*
X005558Y009095D01*
X005558Y009270D02*
X005058Y009270D01*
X005058Y009508D02*
X005619Y009508D01*
X005799Y009747D02*
X005213Y009747D01*
X005058Y008793D02*
X005716Y008793D01*
X005058Y008554D02*
X006638Y008554D01*
X006558Y008315D02*
X005058Y008315D01*
X005058Y008077D02*
X006565Y008077D01*
X006670Y007838D02*
X005058Y007838D01*
X005058Y007600D02*
X006993Y007600D01*
X007462Y007600D02*
X010493Y007600D01*
X010170Y007838D02*
X007786Y007838D01*
X007611Y008793D02*
X008826Y008793D01*
X008898Y009031D02*
X006871Y009031D01*
X006898Y009270D02*
X008898Y009270D01*
X008898Y009508D02*
X006837Y009508D01*
X006656Y009747D02*
X008898Y009747D01*
X009558Y008793D02*
X010345Y008793D01*
X010138Y008554D02*
X009513Y008554D01*
X009282Y008315D02*
X010058Y008315D01*
X010065Y008077D02*
X009044Y008077D01*
X006845Y008793D02*
X006740Y008793D01*
X005058Y007361D02*
X015285Y007361D01*
X016170Y007361D02*
X016928Y007361D01*
X016928Y007123D02*
X005058Y007123D01*
X005058Y006884D02*
X005931Y006884D01*
X006223Y006884D02*
X006233Y006884D01*
X006223Y006646D02*
X006233Y006646D01*
X006223Y006407D02*
X006233Y006407D01*
X006223Y006223D02*
X005508Y006223D01*
X005508Y006181D01*
X005520Y006087D01*
X005545Y005996D01*
X005581Y005909D01*
X005628Y005827D01*
X005685Y005752D01*
X005752Y005685D01*
X005827Y005628D01*
X005909Y005581D01*
X005996Y005545D01*
X006087Y005520D01*
X006181Y005508D01*
X006223Y005508D01*
X006223Y006223D01*
X006223Y006169D02*
X006233Y006169D01*
X006223Y005930D02*
X006233Y005930D01*
X006223Y005691D02*
X006233Y005691D01*
X005746Y005691D02*
X005058Y005691D01*
X005058Y005453D02*
X016928Y005453D01*
X016928Y005214D02*
X005208Y005214D01*
X005447Y004976D02*
X015104Y004976D01*
X016352Y004976D02*
X016928Y004976D01*
X016928Y004737D02*
X016567Y004737D01*
X016666Y004499D02*
X016928Y004499D01*
X016928Y004260D02*
X016698Y004260D01*
X016692Y004022D02*
X016928Y004022D01*
X016928Y003783D02*
X016594Y003783D01*
X016416Y003545D02*
X016928Y003545D01*
X016928Y003306D02*
X016037Y003306D01*
X016472Y007600D02*
X016928Y007600D01*
X016928Y007838D02*
X016616Y007838D01*
X016698Y008077D02*
X016928Y008077D01*
X016928Y008315D02*
X016698Y008315D01*
X016643Y008554D02*
X016928Y008554D01*
X016928Y008793D02*
X016535Y008793D01*
X016928Y010462D02*
X011929Y010462D01*
X012058Y010701D02*
X016928Y010701D01*
X016928Y010939D02*
X012058Y010939D01*
X012058Y011178D02*
X016928Y011178D01*
X016928Y011416D02*
X012058Y011416D01*
X012058Y011655D02*
X016928Y011655D01*
X016928Y011894D02*
X012058Y011894D01*
X014099Y012132D02*
X016928Y012132D01*
X016928Y012371D02*
X014337Y012371D01*
X014536Y012609D02*
X016928Y012609D01*
X016928Y012848D02*
X014558Y012848D01*
X014558Y013086D02*
X016928Y013086D01*
X016928Y013325D02*
X014558Y013325D01*
X014558Y013563D02*
X016928Y013563D01*
X016928Y013802D02*
X014558Y013802D01*
X014558Y014040D02*
X016928Y014040D01*
X016928Y014279D02*
X014558Y014279D01*
X014558Y014518D02*
X016928Y014518D01*
X016928Y014756D02*
X014558Y014756D01*
X014558Y014995D02*
X016928Y014995D01*
X016928Y015233D02*
X014558Y015233D01*
X014558Y015472D02*
X016928Y015472D01*
X016928Y015710D02*
X014558Y015710D01*
X014558Y015949D02*
X016928Y015949D01*
X016928Y016187D02*
X014558Y016187D01*
X014558Y016426D02*
X016928Y016426D01*
X016928Y016664D02*
X014558Y016664D01*
X014558Y016903D02*
X016928Y016903D01*
X016928Y017142D02*
X014558Y017142D01*
X014522Y017380D02*
X016928Y017380D01*
X016928Y017619D02*
X006432Y017619D01*
X006361Y017648D02*
X006095Y017648D01*
X005848Y017546D01*
X005660Y017357D01*
X005558Y017111D01*
X005558Y016845D01*
X005660Y016598D01*
X005848Y016410D01*
X006095Y016308D01*
X006361Y016308D01*
X006607Y016410D01*
X006796Y016598D01*
X006898Y016845D01*
X006898Y017111D01*
X006796Y017357D01*
X006607Y017546D01*
X006361Y017648D01*
X006024Y017619D02*
X001028Y017619D01*
X001028Y017857D02*
X016928Y017857D01*
X016928Y018096D02*
X016270Y018096D01*
X016463Y018334D02*
X016928Y018334D01*
X016928Y018573D02*
X016558Y018573D01*
X016558Y018811D02*
X016921Y018811D01*
X016848Y019050D02*
X016493Y019050D01*
X016633Y019288D02*
X016341Y019288D01*
X015114Y019288D02*
X003341Y019288D01*
X003493Y019050D02*
X014963Y019050D01*
X014898Y018811D02*
X003558Y018811D01*
X003558Y018573D02*
X014898Y018573D01*
X014992Y018334D02*
X003463Y018334D01*
X003270Y018096D02*
X015186Y018096D01*
X013898Y016664D02*
X008381Y016664D01*
X008459Y016426D02*
X008143Y016426D01*
X008221Y016187D02*
X007904Y016187D01*
X007898Y015949D02*
X007982Y015949D01*
X007898Y015710D02*
X007842Y015710D01*
X007898Y015472D02*
X007669Y015472D01*
X007898Y015233D02*
X002855Y015233D01*
X002777Y015156D02*
X003050Y015428D01*
X003198Y015785D01*
X003198Y016171D01*
X003050Y016527D01*
X002777Y016800D01*
X002421Y016948D01*
X002035Y016948D01*
X001678Y016800D01*
X001406Y016527D01*
X001258Y016171D01*
X001258Y015785D01*
X001406Y015428D01*
X001678Y015156D01*
X002035Y015008D01*
X002421Y015008D01*
X002777Y015156D01*
X003068Y015472D02*
X006786Y015472D01*
X006614Y015710D02*
X003167Y015710D01*
X003198Y015949D02*
X006558Y015949D01*
X006589Y016187D02*
X003191Y016187D01*
X003092Y016426D02*
X005832Y016426D01*
X005632Y016664D02*
X002913Y016664D01*
X002529Y016903D02*
X005558Y016903D01*
X005570Y017142D02*
X001028Y017142D01*
X001028Y017380D02*
X005683Y017380D01*
X006623Y016426D02*
X006728Y016426D01*
X006823Y016664D02*
X007448Y016664D01*
X007686Y016903D02*
X006898Y016903D01*
X006885Y017142D02*
X007925Y017142D01*
X008163Y017380D02*
X006773Y017380D01*
X008558Y015472D02*
X008898Y015472D01*
X008898Y015710D02*
X008677Y015710D01*
X008558Y015233D02*
X008898Y015233D01*
X008898Y014995D02*
X008558Y014995D01*
X008558Y014756D02*
X008898Y014756D01*
X008898Y014518D02*
X008558Y014518D01*
X008558Y014279D02*
X008898Y014279D01*
X008898Y014040D02*
X008558Y014040D01*
X008558Y013802D02*
X008898Y013802D01*
X008898Y013563D02*
X008558Y013563D01*
X008558Y013325D02*
X008898Y013325D01*
X008898Y013086D02*
X008558Y013086D01*
X008558Y012848D02*
X008898Y012848D01*
X008898Y012609D02*
X008558Y012609D01*
X008558Y012371D02*
X008898Y012371D01*
X008898Y012132D02*
X008545Y012132D01*
X008360Y011894D02*
X008898Y011894D01*
X008688Y011655D02*
X008061Y011655D01*
X008450Y011416D02*
X007614Y011416D01*
X007783Y012371D02*
X007898Y012371D01*
X007898Y012609D02*
X007454Y012609D01*
X007898Y013325D02*
X006533Y013325D01*
X006547Y013331D02*
X006629Y013378D01*
X006704Y013435D01*
X006770Y013502D01*
X006828Y013577D01*
X006875Y013659D01*
X006911Y013746D01*
X006936Y013837D01*
X006948Y013931D01*
X006948Y013973D01*
X006233Y013973D01*
X006233Y013983D01*
X006948Y013983D01*
X006948Y014025D01*
X006936Y014119D01*
X006911Y014210D01*
X006875Y014297D01*
X006828Y014379D01*
X006770Y014454D01*
X006704Y014520D01*
X006629Y014578D01*
X006547Y014625D01*
X006460Y014661D01*
X006369Y014686D01*
X006275Y014698D01*
X006233Y014698D01*
X006233Y013983D01*
X006223Y013983D01*
X006223Y014698D01*
X006181Y014698D01*
X006087Y014686D01*
X005996Y014661D01*
X005909Y014625D01*
X005827Y014578D01*
X005752Y014520D01*
X005685Y014454D01*
X005628Y014379D01*
X005581Y014297D01*
X005545Y014210D01*
X005520Y014119D01*
X005508Y014025D01*
X005508Y013983D01*
X006223Y013983D01*
X006223Y013973D01*
X006233Y013973D01*
X006233Y013258D01*
X006275Y013258D01*
X006369Y013270D01*
X006460Y013295D01*
X006547Y013331D01*
X006817Y013563D02*
X007898Y013563D01*
X007898Y013802D02*
X006926Y013802D01*
X006946Y014040D02*
X007898Y014040D01*
X007898Y014279D02*
X006882Y014279D01*
X006706Y014518D02*
X007898Y014518D01*
X007898Y014756D02*
X001028Y014756D01*
X001028Y014995D02*
X007898Y014995D01*
X009558Y014995D02*
X010300Y014995D01*
X010300Y014756D02*
X009558Y014756D01*
X009558Y014518D02*
X010352Y014518D01*
X010256Y015233D02*
X009558Y015233D01*
X012496Y016426D02*
X013898Y016426D01*
X013898Y016187D02*
X012735Y016187D01*
X012508Y016415D02*
X012508Y016415D01*
X012974Y015949D02*
X013898Y015949D01*
X013898Y015710D02*
X013058Y015710D01*
X013096Y015472D02*
X013898Y015472D01*
X013898Y015233D02*
X013155Y015233D01*
X013155Y014995D02*
X013898Y014995D01*
X013898Y014756D02*
X013155Y014756D01*
X013103Y014518D02*
X013898Y014518D01*
X006233Y014518D02*
X006223Y014518D01*
X006223Y014279D02*
X006233Y014279D01*
X006223Y014040D02*
X006233Y014040D01*
X006223Y013973D02*
X005508Y013973D01*
X005508Y013931D01*
X005520Y013837D01*
X005545Y013746D01*
X005581Y013659D01*
X005628Y013577D01*
X005685Y013502D01*
X005752Y013435D01*
X005827Y013378D01*
X005909Y013331D01*
X005996Y013295D01*
X006087Y013270D01*
X006181Y013258D01*
X006223Y013258D01*
X006223Y013973D01*
X006223Y013802D02*
X006233Y013802D01*
X006223Y013563D02*
X006233Y013563D01*
X006223Y013325D02*
X006233Y013325D01*
X005923Y013325D02*
X001028Y013325D01*
X001028Y013563D02*
X005638Y013563D01*
X005530Y013802D02*
X001028Y013802D01*
X001028Y014040D02*
X005510Y014040D01*
X005573Y014279D02*
X001028Y014279D01*
X001028Y014518D02*
X005749Y014518D01*
X002186Y018096D02*
X001028Y018096D01*
X001028Y018334D02*
X001992Y018334D01*
X001898Y018573D02*
X001028Y018573D01*
X001034Y018811D02*
X001898Y018811D01*
X001963Y019050D02*
X001107Y019050D01*
X001323Y019288D02*
X002114Y019288D01*
X001927Y016903D02*
X001028Y016903D01*
X001028Y016664D02*
X001543Y016664D01*
X001364Y016426D02*
X001028Y016426D01*
X001028Y016187D02*
X001265Y016187D01*
X001258Y015949D02*
X001028Y015949D01*
X001028Y015710D02*
X001289Y015710D01*
X001388Y015472D02*
X001028Y015472D01*
X001028Y015233D02*
X001601Y015233D01*
X001028Y006884D02*
X004398Y006884D01*
X004398Y006646D02*
X001028Y006646D01*
X001028Y006407D02*
X004398Y006407D01*
X004398Y006169D02*
X001028Y006169D01*
X001028Y005930D02*
X004398Y005930D01*
X004398Y005691D02*
X001028Y005691D01*
X001028Y005453D02*
X004398Y005453D01*
X004398Y005214D02*
X001028Y005214D01*
X001028Y004976D02*
X001604Y004976D01*
X001678Y005050D02*
X001406Y004777D01*
X001258Y004421D01*
X001258Y004035D01*
X001406Y003678D01*
X001678Y003406D01*
X002035Y003258D01*
X002421Y003258D01*
X002777Y003406D01*
X003050Y003678D01*
X003198Y004035D01*
X003198Y004421D01*
X003050Y004777D01*
X002777Y005050D01*
X002421Y005198D01*
X002035Y005198D01*
X001678Y005050D01*
X001389Y004737D02*
X001028Y004737D01*
X001028Y004499D02*
X001290Y004499D01*
X001258Y004260D02*
X001028Y004260D01*
X001028Y004022D02*
X001263Y004022D01*
X001362Y003783D02*
X001028Y003783D01*
X001028Y003545D02*
X001539Y003545D01*
X001919Y003306D02*
X001028Y003306D01*
X001028Y003067D02*
X005569Y003067D01*
X005679Y002829D02*
X001028Y002829D01*
X002537Y003306D02*
X005558Y003306D01*
X005634Y003545D02*
X002916Y003545D01*
X003094Y003783D02*
X005836Y003783D01*
X005467Y004022D02*
X003192Y004022D01*
X003198Y004260D02*
X005229Y004260D01*
X004990Y004499D02*
X003166Y004499D01*
X003067Y004737D02*
X004752Y004737D01*
X004513Y004976D02*
X002852Y004976D01*
X005058Y005930D02*
X005572Y005930D01*
X005509Y006169D02*
X005058Y006169D01*
X005058Y006407D02*
X005531Y006407D01*
X005641Y006646D02*
X005058Y006646D01*
X005685Y004737D02*
X006790Y004737D01*
X007666Y004737D02*
X010290Y004737D01*
X010115Y004499D02*
X007841Y004499D01*
X007898Y004260D02*
X010058Y004260D01*
X010088Y004022D02*
X007868Y004022D01*
X007731Y003783D02*
X010225Y003783D01*
X011058Y003306D02*
X006898Y003306D01*
X006887Y003067D02*
X011069Y003067D01*
X011179Y002829D02*
X006776Y002829D01*
X006822Y003545D02*
X011134Y003545D01*
X006725Y003783D02*
X006620Y003783D01*
M02*
