G75*
G70*
%OFA0B0*%
%FSLAX24Y24*%
%IPPOS*%
%LPD*%
%AMOC8*
5,1,8,0,0,1.08239X$1,22.5*
%
%ADD10C,0.0000*%
%ADD11C,0.0160*%
%ADD12C,0.0060*%
%ADD13C,0.0040*%
%ADD14C,0.0050*%
%ADD15C,0.0070*%
D10*
X002118Y001728D02*
X002120Y001777D01*
X002126Y001826D01*
X002136Y001874D01*
X002149Y001921D01*
X002167Y001967D01*
X002188Y002011D01*
X002212Y002054D01*
X002240Y002094D01*
X002271Y002133D01*
X002305Y002168D01*
X002342Y002201D01*
X002381Y002230D01*
X002423Y002256D01*
X002466Y002279D01*
X002512Y002298D01*
X002558Y002314D01*
X002606Y002326D01*
X002654Y002334D01*
X002703Y002338D01*
X002753Y002338D01*
X002802Y002334D01*
X002850Y002326D01*
X002898Y002314D01*
X002944Y002298D01*
X002990Y002279D01*
X003033Y002256D01*
X003075Y002230D01*
X003114Y002201D01*
X003151Y002168D01*
X003185Y002133D01*
X003216Y002094D01*
X003244Y002054D01*
X003268Y002011D01*
X003289Y001967D01*
X003307Y001921D01*
X003320Y001874D01*
X003330Y001826D01*
X003336Y001777D01*
X003338Y001728D01*
X003336Y001679D01*
X003330Y001630D01*
X003320Y001582D01*
X003307Y001535D01*
X003289Y001489D01*
X003268Y001445D01*
X003244Y001402D01*
X003216Y001362D01*
X003185Y001323D01*
X003151Y001288D01*
X003114Y001255D01*
X003075Y001226D01*
X003033Y001200D01*
X002990Y001177D01*
X002944Y001158D01*
X002898Y001142D01*
X002850Y001130D01*
X002802Y001122D01*
X002753Y001118D01*
X002703Y001118D01*
X002654Y001122D01*
X002606Y001130D01*
X002558Y001142D01*
X002512Y001158D01*
X002466Y001177D01*
X002423Y001200D01*
X002381Y001226D01*
X002342Y001255D01*
X002305Y001288D01*
X002271Y001323D01*
X002240Y001362D01*
X002212Y001402D01*
X002188Y001445D01*
X002167Y001489D01*
X002149Y001535D01*
X002136Y001582D01*
X002126Y001630D01*
X002120Y001679D01*
X002118Y001728D01*
X015118Y001728D02*
X015120Y001777D01*
X015126Y001826D01*
X015136Y001874D01*
X015149Y001921D01*
X015167Y001967D01*
X015188Y002011D01*
X015212Y002054D01*
X015240Y002094D01*
X015271Y002133D01*
X015305Y002168D01*
X015342Y002201D01*
X015381Y002230D01*
X015423Y002256D01*
X015466Y002279D01*
X015512Y002298D01*
X015558Y002314D01*
X015606Y002326D01*
X015654Y002334D01*
X015703Y002338D01*
X015753Y002338D01*
X015802Y002334D01*
X015850Y002326D01*
X015898Y002314D01*
X015944Y002298D01*
X015990Y002279D01*
X016033Y002256D01*
X016075Y002230D01*
X016114Y002201D01*
X016151Y002168D01*
X016185Y002133D01*
X016216Y002094D01*
X016244Y002054D01*
X016268Y002011D01*
X016289Y001967D01*
X016307Y001921D01*
X016320Y001874D01*
X016330Y001826D01*
X016336Y001777D01*
X016338Y001728D01*
X016336Y001679D01*
X016330Y001630D01*
X016320Y001582D01*
X016307Y001535D01*
X016289Y001489D01*
X016268Y001445D01*
X016244Y001402D01*
X016216Y001362D01*
X016185Y001323D01*
X016151Y001288D01*
X016114Y001255D01*
X016075Y001226D01*
X016033Y001200D01*
X015990Y001177D01*
X015944Y001158D01*
X015898Y001142D01*
X015850Y001130D01*
X015802Y001122D01*
X015753Y001118D01*
X015703Y001118D01*
X015654Y001122D01*
X015606Y001130D01*
X015558Y001142D01*
X015512Y001158D01*
X015466Y001177D01*
X015423Y001200D01*
X015381Y001226D01*
X015342Y001255D01*
X015305Y001288D01*
X015271Y001323D01*
X015240Y001362D01*
X015212Y001402D01*
X015188Y001445D01*
X015167Y001489D01*
X015149Y001535D01*
X015136Y001582D01*
X015126Y001630D01*
X015120Y001679D01*
X015118Y001728D01*
X015118Y018728D02*
X015120Y018777D01*
X015126Y018826D01*
X015136Y018874D01*
X015149Y018921D01*
X015167Y018967D01*
X015188Y019011D01*
X015212Y019054D01*
X015240Y019094D01*
X015271Y019133D01*
X015305Y019168D01*
X015342Y019201D01*
X015381Y019230D01*
X015423Y019256D01*
X015466Y019279D01*
X015512Y019298D01*
X015558Y019314D01*
X015606Y019326D01*
X015654Y019334D01*
X015703Y019338D01*
X015753Y019338D01*
X015802Y019334D01*
X015850Y019326D01*
X015898Y019314D01*
X015944Y019298D01*
X015990Y019279D01*
X016033Y019256D01*
X016075Y019230D01*
X016114Y019201D01*
X016151Y019168D01*
X016185Y019133D01*
X016216Y019094D01*
X016244Y019054D01*
X016268Y019011D01*
X016289Y018967D01*
X016307Y018921D01*
X016320Y018874D01*
X016330Y018826D01*
X016336Y018777D01*
X016338Y018728D01*
X016336Y018679D01*
X016330Y018630D01*
X016320Y018582D01*
X016307Y018535D01*
X016289Y018489D01*
X016268Y018445D01*
X016244Y018402D01*
X016216Y018362D01*
X016185Y018323D01*
X016151Y018288D01*
X016114Y018255D01*
X016075Y018226D01*
X016033Y018200D01*
X015990Y018177D01*
X015944Y018158D01*
X015898Y018142D01*
X015850Y018130D01*
X015802Y018122D01*
X015753Y018118D01*
X015703Y018118D01*
X015654Y018122D01*
X015606Y018130D01*
X015558Y018142D01*
X015512Y018158D01*
X015466Y018177D01*
X015423Y018200D01*
X015381Y018226D01*
X015342Y018255D01*
X015305Y018288D01*
X015271Y018323D01*
X015240Y018362D01*
X015212Y018402D01*
X015188Y018445D01*
X015167Y018489D01*
X015149Y018535D01*
X015136Y018582D01*
X015126Y018630D01*
X015120Y018679D01*
X015118Y018728D01*
X002118Y018728D02*
X002120Y018777D01*
X002126Y018826D01*
X002136Y018874D01*
X002149Y018921D01*
X002167Y018967D01*
X002188Y019011D01*
X002212Y019054D01*
X002240Y019094D01*
X002271Y019133D01*
X002305Y019168D01*
X002342Y019201D01*
X002381Y019230D01*
X002423Y019256D01*
X002466Y019279D01*
X002512Y019298D01*
X002558Y019314D01*
X002606Y019326D01*
X002654Y019334D01*
X002703Y019338D01*
X002753Y019338D01*
X002802Y019334D01*
X002850Y019326D01*
X002898Y019314D01*
X002944Y019298D01*
X002990Y019279D01*
X003033Y019256D01*
X003075Y019230D01*
X003114Y019201D01*
X003151Y019168D01*
X003185Y019133D01*
X003216Y019094D01*
X003244Y019054D01*
X003268Y019011D01*
X003289Y018967D01*
X003307Y018921D01*
X003320Y018874D01*
X003330Y018826D01*
X003336Y018777D01*
X003338Y018728D01*
X003336Y018679D01*
X003330Y018630D01*
X003320Y018582D01*
X003307Y018535D01*
X003289Y018489D01*
X003268Y018445D01*
X003244Y018402D01*
X003216Y018362D01*
X003185Y018323D01*
X003151Y018288D01*
X003114Y018255D01*
X003075Y018226D01*
X003033Y018200D01*
X002990Y018177D01*
X002944Y018158D01*
X002898Y018142D01*
X002850Y018130D01*
X002802Y018122D01*
X002753Y018118D01*
X002703Y018118D01*
X002654Y018122D01*
X002606Y018130D01*
X002558Y018142D01*
X002512Y018158D01*
X002466Y018177D01*
X002423Y018200D01*
X002381Y018226D01*
X002342Y018255D01*
X002305Y018288D01*
X002271Y018323D01*
X002240Y018362D01*
X002212Y018402D01*
X002188Y018445D01*
X002167Y018489D01*
X002149Y018535D01*
X002136Y018582D01*
X002126Y018630D01*
X002120Y018679D01*
X002118Y018728D01*
D11*
X000728Y018728D02*
X000728Y001728D01*
X000730Y001668D01*
X000735Y001607D01*
X000744Y001548D01*
X000757Y001489D01*
X000773Y001431D01*
X000793Y001373D01*
X000816Y001318D01*
X000843Y001263D01*
X000872Y001211D01*
X000905Y001160D01*
X000941Y001111D01*
X000979Y001065D01*
X001021Y001021D01*
X001065Y000979D01*
X001111Y000941D01*
X001160Y000905D01*
X001211Y000872D01*
X001263Y000843D01*
X001318Y000816D01*
X001373Y000793D01*
X001431Y000773D01*
X001489Y000757D01*
X001548Y000744D01*
X001607Y000735D01*
X001668Y000730D01*
X001728Y000728D01*
X016228Y000728D01*
X016291Y000730D01*
X016353Y000736D01*
X016415Y000746D01*
X016477Y000759D01*
X016537Y000777D01*
X016596Y000798D01*
X016654Y000823D01*
X016710Y000852D01*
X016764Y000884D01*
X016816Y000919D01*
X016865Y000957D01*
X016913Y000999D01*
X016957Y001043D01*
X016999Y001091D01*
X017037Y001140D01*
X017072Y001192D01*
X017104Y001246D01*
X017133Y001302D01*
X017158Y001360D01*
X017179Y001419D01*
X017197Y001479D01*
X017210Y001541D01*
X017220Y001603D01*
X017226Y001665D01*
X017228Y001728D01*
X017228Y018728D01*
X017226Y018788D01*
X017221Y018849D01*
X017212Y018908D01*
X017199Y018967D01*
X017183Y019026D01*
X017163Y019083D01*
X017140Y019138D01*
X017113Y019193D01*
X017084Y019245D01*
X017051Y019296D01*
X017015Y019345D01*
X016977Y019391D01*
X016935Y019435D01*
X016891Y019477D01*
X016845Y019515D01*
X016796Y019551D01*
X016745Y019584D01*
X016693Y019613D01*
X016638Y019640D01*
X016583Y019663D01*
X016526Y019683D01*
X016467Y019699D01*
X016408Y019712D01*
X016349Y019721D01*
X016288Y019726D01*
X016228Y019728D01*
X001728Y019728D01*
X001668Y019726D01*
X001607Y019721D01*
X001548Y019712D01*
X001489Y019699D01*
X001431Y019683D01*
X001373Y019663D01*
X001318Y019640D01*
X001263Y019613D01*
X001211Y019584D01*
X001160Y019551D01*
X001111Y019515D01*
X001065Y019477D01*
X001021Y019435D01*
X000979Y019391D01*
X000941Y019345D01*
X000905Y019296D01*
X000872Y019245D01*
X000843Y019193D01*
X000816Y019138D01*
X000793Y019083D01*
X000773Y019025D01*
X000757Y018967D01*
X000744Y018908D01*
X000735Y018849D01*
X000730Y018788D01*
X000728Y018728D01*
X008478Y017728D02*
X008978Y018228D01*
X010228Y018228D01*
X010228Y016478D01*
X013228Y016728D02*
X013228Y016228D01*
X013228Y016728D02*
X014728Y016728D01*
X014728Y017728D01*
X013228Y017728D01*
X013228Y016728D01*
X013228Y017728D02*
X013228Y018228D01*
X013228Y012228D02*
X013228Y011728D01*
X013728Y011728D01*
X013728Y010728D01*
X013228Y010728D01*
X013228Y010228D01*
X013228Y010728D02*
X013228Y011728D01*
X010228Y012228D02*
X010228Y010478D01*
X008978Y010478D01*
X008478Y009978D01*
D12*
X010508Y010508D02*
X010508Y010935D01*
X010721Y011148D01*
X010935Y010935D01*
X010935Y010508D01*
X010975Y010468D02*
X010975Y010895D01*
X010761Y011108D01*
X010548Y010895D01*
X010548Y010468D01*
X010548Y010788D02*
X010975Y010788D01*
X010935Y010828D02*
X010508Y010828D01*
X010548Y011478D02*
X010548Y012118D01*
X010868Y012118D01*
X010975Y012012D01*
X010975Y011798D01*
X010868Y011691D01*
X010548Y011691D01*
X010508Y011721D02*
X010828Y011721D01*
X010935Y011828D01*
X010935Y012042D01*
X010828Y012148D01*
X010508Y012148D01*
X010508Y011508D01*
X011152Y011615D02*
X011259Y011508D01*
X011473Y011508D01*
X011579Y011615D01*
X011579Y012042D01*
X011473Y012148D01*
X011259Y012148D01*
X011152Y012042D01*
X011152Y011615D01*
X011192Y011585D02*
X011299Y011478D01*
X011513Y011478D01*
X011619Y011585D01*
X011619Y012012D01*
X011513Y012118D01*
X011299Y012118D01*
X011192Y012012D01*
X011192Y011585D01*
X011797Y011508D02*
X011797Y012148D01*
X012117Y012148D01*
X012224Y012042D01*
X012224Y011828D01*
X012117Y011721D01*
X011797Y011721D01*
X011837Y011691D02*
X012157Y011691D01*
X012264Y011798D01*
X012264Y012012D01*
X012157Y012118D01*
X011837Y012118D01*
X011837Y011478D01*
X012010Y011721D02*
X012224Y011508D01*
X012264Y011478D02*
X012050Y011691D01*
X012441Y012148D02*
X012868Y012148D01*
X012908Y012118D02*
X012481Y012118D01*
X012655Y012148D02*
X012655Y011508D01*
X012695Y011478D02*
X012695Y012118D01*
X010868Y016478D02*
X010548Y016478D01*
X010548Y017118D01*
X010868Y017118D01*
X010975Y017012D01*
X010975Y016905D01*
X010868Y016798D01*
X010548Y016798D01*
X010508Y016828D02*
X010828Y016828D01*
X010935Y016721D01*
X010935Y016615D01*
X010828Y016508D01*
X010508Y016508D01*
X010508Y017148D01*
X010828Y017148D01*
X010935Y017042D01*
X010935Y016935D01*
X010828Y016828D01*
X010868Y016798D02*
X010975Y016691D01*
X010975Y016585D01*
X010868Y016478D01*
X010538Y017468D02*
X010538Y018108D01*
X010858Y018108D01*
X010965Y018002D01*
X010965Y017788D01*
X010858Y017681D01*
X010538Y017681D01*
X010508Y017721D02*
X010828Y017721D01*
X010935Y017828D01*
X010935Y018042D01*
X010828Y018148D01*
X010508Y018148D01*
X010508Y017508D01*
X011152Y017615D02*
X011259Y017508D01*
X011473Y017508D01*
X011579Y017615D01*
X011579Y018042D01*
X011473Y018148D01*
X011259Y018148D01*
X011152Y018042D01*
X011152Y017615D01*
X011182Y017575D02*
X011289Y017468D01*
X011503Y017468D01*
X011609Y017575D01*
X011609Y018002D01*
X011503Y018108D01*
X011289Y018108D01*
X011182Y018002D01*
X011182Y017575D01*
X011797Y017508D02*
X011797Y018148D01*
X012117Y018148D01*
X012224Y018042D01*
X012224Y017828D01*
X012117Y017721D01*
X011797Y017721D01*
X011827Y017681D02*
X012147Y017681D01*
X012254Y017788D01*
X012254Y018002D01*
X012147Y018108D01*
X011827Y018108D01*
X011827Y017468D01*
X012010Y017721D02*
X012224Y017508D01*
X012254Y017468D02*
X012040Y017681D01*
X012471Y018108D02*
X012898Y018108D01*
X012868Y018148D02*
X012441Y018148D01*
X012655Y018148D02*
X012655Y017508D01*
X012685Y017468D02*
X012685Y018108D01*
D13*
X008097Y018455D02*
X008021Y018378D01*
X007867Y018378D01*
X007791Y018455D01*
X007791Y018608D02*
X007944Y018685D01*
X008021Y018685D01*
X008097Y018608D01*
X008097Y018455D01*
X007791Y018608D02*
X007791Y018838D01*
X008097Y018838D01*
X007637Y018838D02*
X007330Y018838D01*
X007330Y018608D01*
X007484Y018685D01*
X007560Y018685D01*
X007637Y018608D01*
X007637Y018455D01*
X007560Y018378D01*
X007407Y018378D01*
X007330Y018455D01*
X007177Y018378D02*
X006870Y018378D01*
X007023Y018378D02*
X007023Y018838D01*
X006870Y018685D01*
X006716Y018685D02*
X006486Y018531D01*
X006716Y018378D01*
X006486Y018378D02*
X006486Y018838D01*
X006333Y018608D02*
X006333Y018378D01*
X006333Y018608D02*
X006256Y018685D01*
X006103Y018685D01*
X006026Y018608D01*
X005872Y018685D02*
X005642Y018685D01*
X005565Y018608D01*
X005565Y018455D01*
X005642Y018378D01*
X005872Y018378D01*
X006026Y018378D02*
X006026Y018838D01*
X005412Y018685D02*
X005259Y018685D01*
X005335Y018761D02*
X005335Y018455D01*
X005412Y018378D01*
X005105Y018455D02*
X005028Y018378D01*
X004875Y018378D01*
X004798Y018455D01*
X004798Y018608D01*
X004875Y018685D01*
X005028Y018685D01*
X005105Y018608D01*
X005105Y018455D01*
X004645Y018378D02*
X004645Y018608D01*
X004568Y018685D01*
X004415Y018685D01*
X004338Y018608D01*
X004338Y018838D02*
X004338Y018378D01*
X004328Y002138D02*
X004481Y001985D01*
X004635Y002138D01*
X004635Y001678D01*
X004788Y001678D02*
X004942Y001678D01*
X004865Y001678D02*
X004865Y002138D01*
X004788Y002138D02*
X004942Y002138D01*
X005095Y002138D02*
X005325Y002138D01*
X005402Y002061D01*
X005402Y001755D01*
X005325Y001678D01*
X005095Y001678D01*
X005095Y002138D01*
X005555Y002138D02*
X005709Y002138D01*
X005632Y002138D02*
X005632Y001678D01*
X005555Y001678D02*
X005709Y001678D01*
X005862Y001908D02*
X006169Y001908D01*
X006323Y001985D02*
X006323Y002061D01*
X006399Y002138D01*
X006553Y002138D01*
X006630Y002061D01*
X006553Y001908D02*
X006399Y001908D01*
X006323Y001985D01*
X006323Y001755D02*
X006399Y001678D01*
X006553Y001678D01*
X006630Y001755D01*
X006630Y001831D01*
X006553Y001908D01*
X006783Y001908D02*
X006783Y001755D01*
X006860Y001678D01*
X007013Y001678D01*
X007090Y001831D02*
X006783Y001831D01*
X006783Y001908D02*
X006860Y001985D01*
X007013Y001985D01*
X007090Y001908D01*
X007090Y001831D01*
X007243Y001678D02*
X007397Y001678D01*
X007320Y001678D02*
X007320Y002138D01*
X007243Y002138D01*
X007550Y001908D02*
X007550Y001755D01*
X007627Y001678D01*
X007780Y001678D01*
X007857Y001831D02*
X007550Y001831D01*
X007550Y001908D02*
X007627Y001985D01*
X007780Y001985D01*
X007857Y001908D01*
X007857Y001831D01*
X008011Y001755D02*
X008011Y001908D01*
X008087Y001985D01*
X008318Y001985D01*
X008471Y001985D02*
X008624Y001985D01*
X008548Y002061D02*
X008548Y001755D01*
X008624Y001678D01*
X008318Y001678D02*
X008087Y001678D01*
X008011Y001755D01*
X009238Y001831D02*
X009392Y001985D01*
X009468Y001985D01*
X009622Y001908D02*
X009622Y001755D01*
X009699Y001678D01*
X009852Y001678D01*
X009929Y001831D02*
X009929Y001908D01*
X009852Y001985D01*
X009699Y001985D01*
X009622Y001908D01*
X009622Y001831D02*
X009929Y001831D01*
X010082Y001985D02*
X010236Y001678D01*
X010389Y001985D01*
X011003Y001985D02*
X011156Y002138D01*
X011156Y001678D01*
X011003Y001678D02*
X011310Y001678D01*
X009238Y001678D02*
X009238Y001985D01*
X004328Y002138D02*
X004328Y001678D01*
D14*
X005153Y002943D02*
X005003Y003093D01*
X005453Y003093D01*
X005453Y002943D02*
X005453Y003243D01*
X007253Y003268D02*
X007478Y003043D01*
X007478Y003343D01*
X007703Y003268D02*
X007253Y003268D01*
X007828Y004078D02*
X008478Y004078D01*
X008478Y002678D01*
X008478Y002628D02*
X001594Y002628D01*
X001598Y002629D02*
X001599Y002622D01*
X001599Y002089D01*
X001582Y002086D02*
X001299Y002086D01*
X001299Y002629D01*
X000991Y002629D01*
X000992Y002629D02*
X000992Y009826D01*
X000991Y009826D02*
X000991Y010365D01*
X000992Y010370D02*
X000992Y010377D01*
X001291Y010377D01*
X001291Y009826D01*
X001590Y009826D01*
X001591Y009834D02*
X001598Y009834D01*
X001598Y002629D01*
X007003Y006018D02*
X007078Y005943D01*
X007003Y006018D02*
X007003Y006168D01*
X007078Y006243D01*
X007153Y006243D01*
X007453Y005943D01*
X007453Y006243D01*
X007828Y006928D02*
X008478Y006928D01*
X008478Y005528D01*
X007828Y005528D01*
X007828Y004078D01*
X009478Y004028D02*
X009478Y002628D01*
X016378Y002628D01*
X016366Y002629D02*
X016665Y002629D01*
X016665Y002078D01*
X016964Y002078D01*
X016964Y002086D01*
X016965Y002091D02*
X016965Y002629D01*
X016964Y002629D02*
X016964Y009826D01*
X016965Y009826D02*
X016657Y009826D01*
X016657Y010370D01*
X016374Y010370D01*
X016357Y010366D02*
X016357Y009834D01*
X016358Y009826D01*
X016358Y002622D01*
X016365Y002622D01*
X012903Y003228D02*
X012828Y003153D01*
X012903Y003228D02*
X012903Y003378D01*
X012828Y003453D01*
X012753Y003453D01*
X012678Y003378D01*
X012678Y003303D01*
X012678Y003378D02*
X012603Y003453D01*
X012528Y003453D01*
X012453Y003378D01*
X012453Y003228D01*
X012528Y003153D01*
X010653Y003278D02*
X010578Y003203D01*
X010653Y003278D02*
X010653Y003428D01*
X010578Y003503D01*
X010428Y003503D01*
X010353Y003428D01*
X010353Y003353D01*
X010428Y003203D01*
X010203Y003203D01*
X010203Y003503D01*
X010128Y004028D02*
X009478Y004028D01*
X010128Y004028D02*
X010128Y005528D01*
X009478Y005528D01*
X009478Y006928D01*
X010128Y006928D01*
X010128Y008378D01*
X009478Y008378D01*
X009478Y009778D01*
X009478Y009828D02*
X016362Y009828D01*
X015044Y012811D02*
X013903Y012811D01*
X013903Y015645D01*
X015044Y015645D01*
X015044Y015015D01*
X015044Y012811D01*
X013903Y012811D02*
X009218Y012811D01*
X009178Y012811D02*
X009178Y015645D01*
X012761Y015645D01*
X012761Y012811D01*
X012761Y015645D02*
X013903Y015645D01*
X008478Y016178D02*
X007828Y016178D01*
X007828Y014678D01*
X008478Y014678D01*
X008478Y013278D01*
X007828Y013278D01*
X007828Y011828D01*
X008478Y011828D01*
X008478Y010428D01*
X008478Y010378D02*
X001594Y010378D01*
X001598Y010379D02*
X001599Y010372D01*
X001599Y009839D01*
X001582Y009836D02*
X001299Y009836D01*
X001299Y010379D01*
X000991Y010379D01*
X000992Y010379D02*
X000992Y017576D01*
X000991Y017576D02*
X000991Y018115D01*
X000992Y018120D02*
X000992Y018127D01*
X001291Y018127D01*
X001291Y017576D01*
X001590Y017576D01*
X001591Y017584D02*
X001598Y017584D01*
X001598Y010379D01*
X001578Y009828D02*
X008478Y009828D01*
X008478Y008428D01*
X007828Y008428D01*
X007828Y006928D01*
X007678Y008843D02*
X007753Y008918D01*
X007753Y009068D01*
X007678Y009143D01*
X007528Y009143D01*
X007453Y009068D01*
X007453Y008993D01*
X007528Y008843D01*
X007303Y008843D01*
X007303Y009143D01*
X007478Y010793D02*
X007478Y011093D01*
X007703Y011018D02*
X007253Y011018D01*
X007478Y010793D01*
X005453Y010843D02*
X005003Y010843D01*
X005153Y010693D01*
X005453Y010693D02*
X005453Y010993D01*
X005428Y009193D02*
X005353Y009193D01*
X005278Y009118D01*
X005278Y009043D01*
X005278Y009118D02*
X005203Y009193D01*
X005128Y009193D01*
X005053Y009118D01*
X005053Y008968D01*
X005128Y008893D01*
X005428Y008893D02*
X005503Y008968D01*
X005503Y009118D01*
X005428Y009193D01*
X007078Y013693D02*
X007003Y013768D01*
X007003Y013918D01*
X007078Y013993D01*
X007153Y013993D01*
X007453Y013693D01*
X007453Y013993D01*
X008478Y016178D02*
X008478Y017578D01*
X001578Y017578D01*
X005053Y016868D02*
X005053Y016718D01*
X005128Y016643D01*
X005278Y016793D02*
X005278Y016868D01*
X005353Y016943D01*
X005428Y016943D01*
X005503Y016868D01*
X005503Y016718D01*
X005428Y016643D01*
X005278Y016868D02*
X005203Y016943D01*
X005128Y016943D01*
X005053Y016868D01*
X007303Y016893D02*
X007303Y016593D01*
X007528Y016593D01*
X007453Y016743D01*
X007453Y016818D01*
X007528Y016893D01*
X007678Y016893D01*
X007753Y016818D01*
X007753Y016668D01*
X007678Y016593D01*
X010253Y009228D02*
X010478Y009003D01*
X010478Y009303D01*
X010703Y009228D02*
X010253Y009228D01*
X012503Y009253D02*
X012953Y009253D01*
X012953Y009103D02*
X012953Y009403D01*
X012653Y009103D02*
X012503Y009253D01*
X010953Y006403D02*
X010953Y006103D01*
X010653Y006403D01*
X010578Y006403D01*
X010503Y006328D01*
X010503Y006178D01*
X010578Y006103D01*
D15*
X014162Y006073D02*
X014162Y005862D01*
X014267Y005757D01*
X014688Y005757D01*
X014793Y005862D01*
X014793Y006073D01*
X014688Y006178D01*
X014267Y006178D01*
X014162Y006073D01*
X014162Y006402D02*
X014373Y006612D01*
X014162Y006822D01*
X014793Y006822D01*
X014793Y006402D02*
X014162Y006402D01*
X014267Y005533D02*
X014162Y005428D01*
X014162Y005218D01*
X014267Y005113D01*
X014688Y005113D01*
X014793Y005218D01*
X014793Y005428D01*
X014688Y005533D01*
X003543Y006018D02*
X003123Y006018D01*
X002912Y006229D01*
X003123Y006439D01*
X003543Y006439D01*
X003228Y006439D02*
X003228Y006018D01*
X003228Y013768D02*
X003228Y014084D01*
X003333Y014189D01*
X003438Y014189D01*
X003543Y014084D01*
X003543Y013768D01*
X002912Y013768D01*
X002912Y014084D01*
X003017Y014189D01*
X003123Y014189D01*
X003228Y014084D01*
M02*
